<?xml version="1.0" encoding="utf-8"?>
<!-- Generator: Adobe Illustrator 23.1.1, SVG Export Plug-In . SVG Version: 6.00 Build 0)  -->
<svg version="1.1" id="Laag_1" xmlns="http://www.w3.org/2000/svg" xmlns:xlink="http://www.w3.org/1999/xlink" x="0px" y="0px"
	 viewBox="0 0 841.89 595.28" style="enable-background:new 0 0 841.89 595.28;" xml:space="preserve">
<style type="text/css">
	.st0{fill:#6DB3A3;}
	.st1{fill:#508F82;}
	.st2{fill:url(#SVGID_1_);}
	.st3{fill:url(#SVGID_2_);}
	.st4{fill:url(#SVGID_3_);}
	.st5{fill:url(#SVGID_4_);}
	.st6{fill:#336666;}
	.st7{fill:url(#SVGID_5_);}
	.st8{fill:url(#SVGID_6_);}
	.st9{fill:url(#SVGID_7_);}
</style>
<g>
	<polygon class="st0" points="269.61,310.82 245.08,357.43 243.96,356.97 254.22,376.18 293.36,355.26 	"/>
	<polygon class="st0" points="263.97,300.27 222.64,222.94 183.5,243.86 238.9,347.51 	"/>
</g>
<polygon class="st1" points="445.53,373.38 515.55,303.36 546.35,334.17 507.14,373.38 "/>
<linearGradient id="SVGID_1_" gradientUnits="userSpaceOnUse" x1="586.5441" y1="263.9496" x2="572.2766" y2="278.2171">
	<stop  offset="0" style="stop-color:#508F82"/>
	<stop  offset="0.3459" style="stop-color:#579789"/>
	<stop  offset="0.916" style="stop-color:#6AAF9F"/>
	<stop  offset="1" style="stop-color:#6DB3A3"/>
</linearGradient>
<polygon class="st2" points="557.33,262.33 568.82,250.84 601.96,279.37 587.69,293.63 "/>
<linearGradient id="SVGID_2_" gradientUnits="userSpaceOnUse" x1="518.2216" y1="331.4925" x2="530.9482" y2="318.7659">
	<stop  offset="0" style="stop-color:#508F82"/>
	<stop  offset="0.4969" style="stop-color:#5C9E90"/>
	<stop  offset="1" style="stop-color:#6DB3A3"/>
</linearGradient>
<polygon class="st3" points="515.55,303.36 504.47,314.44 533.62,346.89 546.35,334.17 "/>
<polyline class="st1" points="239.54,348.71 235.83,341.76 260.99,294.7 264.68,301.6 "/>
<linearGradient id="SVGID_3_" gradientUnits="userSpaceOnUse" x1="256.5253" y1="319.2998" x2="232.7603" y2="305.5791">
	<stop  offset="0" style="stop-color:#336666"/>
	<stop  offset="0.0745" style="stop-color:#3C7270"/>
	<stop  offset="0.2329" style="stop-color:#4C8882"/>
	<stop  offset="0.3992" style="stop-color:#5A9A90"/>
	<stop  offset="0.5747" style="stop-color:#65A89A"/>
	<stop  offset="0.7655" style="stop-color:#6BB0A1"/>
	<stop  offset="1" style="stop-color:#6DB3A3"/>
</linearGradient>
<polyline class="st4" points="264.68,301.6 239.54,348.71 224.31,320.21 251.68,277.29 264.68,301.6 264.68,301.6 "/>
<polygon class="st1" points="268.91,309.52 243.88,356.83 254.22,376.18 283.6,376.18 "/>
<polygon class="st1" points="315.32,223.01 315.18,222.94 244.46,355.26 283.6,376.18 342.57,265.84 "/>
<linearGradient id="SVGID_4_" gradientUnits="userSpaceOnUse" x1="330.4672" y1="428.012" x2="369.6026" y2="428.012" gradientTransform="matrix(1.0025 0.5515 -0.5653 1.0275 217.3065 -383.7673)">
	<stop  offset="0" style="stop-color:#549687"/>
	<stop  offset="1" style="stop-color:#6DB3A3"/>
</linearGradient>
<polygon class="st5" points="315.16,222.85 321.29,266.45 342.57,265.93 "/>
<polygon class="st6" points="315.16,222.85 316.89,269.14 342.57,265.93 321.29,266.45 "/>
<polygon class="st1" points="377.17,236.37 377.17,372.79 421.54,372.79 421.54,222.76 421.48,222.76 "/>
<linearGradient id="SVGID_5_" gradientUnits="userSpaceOnUse" x1="447.2921" y1="140.3345" x2="491.6663" y2="140.3345" gradientTransform="matrix(1.0045 -0.305 0.2906 0.9569 -111.4785 243.4375)">
	<stop  offset="0" style="stop-color:#6DB3A3"/>
	<stop  offset="1" style="stop-color:#549687"/>
</linearGradient>
<polygon class="st7" points="377.07,236.29 384.45,244.96 421.64,222.76 "/>
<polygon class="st6" points="377.07,236.29 384.87,248.28 421.64,222.76 384.45,244.96 "/>
<polygon class="st0" points="520.46,235.76 520.43,235.78 445.96,223.8 445.53,223.8 594.5,371.75 656.45,371.75 "/>
<linearGradient id="SVGID_6_" gradientUnits="userSpaceOnUse" x1="486.5863" y1="299.6858" x2="567.0093" y2="299.6858" gradientTransform="matrix(1.1825 0.1903 -0.1714 1.0647 -79.3855 -182.4542)">
	<stop  offset="0" style="stop-color:#549687"/>
	<stop  offset="1" style="stop-color:#6DB3A3"/>
</linearGradient>
<polygon class="st8" points="520,235.78 538.88,249.97 445.53,223.8 "/>
<polygon class="st6" points="445.53,223.8 535.42,254.93 529.5,247.58 "/>
<g>
	<path class="st1" d="M585.61,234.3l0.02-0.02c-0.06,0.01-0.12,0.01-0.18,0.01c-0.02,0-0.03,0.01-0.05,0.01c-0.02,0-0.03,0-0.05,0
		l-28.03,28.03l30.36,31.31l69.8-69.8L585.61,234.3z"/>
</g>
<linearGradient id="SVGID_7_" gradientUnits="userSpaceOnUse" x1="775.7401" y1="74.6641" x2="788.4733" y2="61.9309" gradientTransform="matrix(0 1 1 0 510.1787 -510.1787)">
	<stop  offset="0" style="stop-color:#508F82"/>
	<stop  offset="0.4969" style="stop-color:#5C9E90"/>
	<stop  offset="1" style="stop-color:#6DB3A3"/>
</linearGradient>
<polygon class="st9" points="556.65,262.83 567.81,251.84 600.31,281.02 587.69,293.63 "/>
</svg>
